<svg width="32" height="32" viewBox="0 0 32 32" fill="none" xmlns="http://www.w3.org/2000/svg">
<g opacity="0.33">
<path d="M21.393 8.48702C19.832 6.92702 17.295 6.92702 15.737 8.48602L11.846 12.377C11.092 13.13 10.677 14.135 10.677 15.206C10.677 16.277 11.092 17.281 11.845 18.033C12.625 18.813 13.65 19.203 14.674 19.203C15.698 19.203 16.723 18.812 17.502 18.033C17.893 17.642 17.893 17.01 17.502 16.619C17.111 16.228 16.479 16.228 16.088 16.619C15.309 17.398 14.04 17.399 13.258 16.618C12.883 16.244 12.676 15.743 12.676 15.206C12.676 14.669 12.883 14.166 13.259 13.79L13.791 13.258C13.792 13.257 13.793 13.257 13.793 13.256L17.15 9.90002C17.525 9.52502 18.027 9.31802 18.563 9.31802C19.1 9.31802 19.602 9.52502 19.978 9.90102C20.722 10.646 20.748 11.831 20.07 12.615C20.35 12.799 20.616 13.013 20.862 13.259C21.098 13.495 21.308 13.751 21.489 14.023C22.939 12.458 22.914 10.01 21.393 8.48702ZM14.499 13.966C14.108 14.356 14.108 14.989 14.498 15.38C14.888 15.771 15.521 15.772 15.912 15.381C16.694 14.602 17.962 14.602 18.742 15.381C19.117 15.756 19.324 16.257 19.324 16.794C19.324 17.331 19.117 17.833 18.741 18.209L14.851 22.1C14.072 22.879 12.802 22.88 12.022 22.1C11.278 21.356 11.253 20.17 11.931 19.385C11.651 19.201 11.385 18.988 11.139 18.741C10.903 18.505 10.693 18.249 10.512 17.976C9.06203 19.543 9.08703 21.991 10.609 23.513C11.389 24.292 12.413 24.683 13.437 24.683C14.461 24.683 15.486 24.292 16.266 23.513L20.156 19.622C20.909 18.869 21.324 17.864 21.325 16.794C21.325 15.723 20.91 14.718 20.157 13.966C18.597 12.409 16.06 12.409 14.499 13.966Z" fill="black"/>
</g>
</svg>
